<svg width="80" height="52" viewBox="0 0 80 52" fill="none" xmlns="http://www.w3.org/2000/svg">
<rect x="28" width="24" height="24" rx="4" fill="white" fill-opacity="0.05"/>
<rect x="28.5" y="0.5" width="23" height="23" rx="3.5" stroke="white" stroke-opacity="0.2"/>
<path d="M43.8886 13.7633C44.1266 14.0351 43.958 14.5 43.6214 14.5L36.3786 14.5C36.042 14.5 35.8734 14.0351 36.1114 13.7633L39.7329 9.6264C39.8804 9.45787 40.1196 9.45787 40.2671 9.6264L43.8886 13.7633Z" fill="white" fill-opacity="0.4"/>
<rect y="28" width="24" height="24" rx="4" fill="white" fill-opacity="0.05"/>
<rect x="0.5" y="28.5" width="23" height="23" rx="3.5" stroke="white" stroke-opacity="0.2"/>
<path d="M13.7633 36.1114C14.0351 35.8734 14.5 36.042 14.5 36.3786L14.5 43.6214C14.5 43.958 14.0351 44.1266 13.7633 43.8886L9.6264 40.2671C9.45787 40.1196 9.45787 39.8804 9.6264 39.7329L13.7633 36.1114Z" fill="white" fill-opacity="0.4"/>
<rect x="28" y="28" width="24" height="24" rx="4" fill="white" fill-opacity="0.05"/>
<rect x="28.5" y="28.5" width="23" height="23" rx="3.5" stroke="white" stroke-opacity="0.2"/>
<path d="M36.1114 38.3879C35.8734 38.1393 36.042 37.7143 36.3786 37.7143L43.6214 37.7143C43.958 37.7143 44.1266 38.1393 43.8886 38.3879L40.2671 42.1702C40.1196 42.3242 39.8804 42.3242 39.7329 42.1702L36.1114 38.3879Z" fill="white" fill-opacity="0.4"/>
<rect x="56" y="28" width="24" height="24" rx="4" fill="white" fill-opacity="0.05"/>
<rect x="56.5" y="28.5" width="23" height="23" rx="3.5" stroke="white" stroke-opacity="0.2"/>
<path d="M66.2367 43.8886C65.9649 44.1266 65.5 43.958 65.5 43.6214L65.5 36.3786C65.5 36.042 65.9649 35.8734 66.2367 36.1114L70.3736 39.7329C70.5421 39.8804 70.5421 40.1196 70.3736 40.2671L66.2367 43.8886Z" fill="white" fill-opacity="0.4"/>
</svg>
