<svg width="80" height="116" viewBox="0 0 80 116" fill="none" xmlns="http://www.w3.org/2000/svg">
<rect x="28" width="24" height="24" rx="4" fill="#7350FF" fill-opacity="0.1"/>
<rect x="28.5" y="0.5" width="23" height="23" rx="3.5" stroke="#DC50FF" stroke-opacity="0.2"/>
<path d="M36.456 7.6H37.908V13.456L38.472 14.296H38.532L38.868 13.972V10.78H40.32V13.624L40.728 14.308H40.776L41.28 13.756V7.6H42.732V14.392L41.172 16H40.044L39.648 15.316L39.012 16H37.896L36.456 13.864V7.6Z" fill="#DC50FF"/>
<rect y="28" width="24" height="24" rx="4" fill="#7350FF" fill-opacity="0.1"/>
<rect x="0.5" y="28.5" width="23" height="23" rx="3.5" stroke="#DC50FF" stroke-opacity="0.2"/>
<path d="M11.036 35.6H14.24V44H12.788V40.412H10.388V44H8.96V37.748L11.036 35.6ZM10.388 38.168V39.056H12.788V36.956H11.564L10.388 38.168Z" fill="#DC50FF"/>
<rect x="28" y="28" width="24" height="24" rx="4" fill="#7350FF" fill-opacity="0.1"/>
<rect x="28.5" y="28.5" width="23" height="23" rx="3.5" stroke="#DC50FF" stroke-opacity="0.2"/>
<path d="M37.836 35.6H41.472L42.3 36.848L41.316 37.808L40.74 36.956H38.4L38.184 37.184V38.588L38.544 39.116H41.58L42.54 40.568V42.98L41.556 44H37.368L36.66 42.992L37.608 42.008L38.076 42.644H40.956L41.088 42.536V40.808L40.848 40.472H37.812L36.732 38.864V36.752L37.836 35.6Z" fill="#DC50FF"/>
<rect x="56" y="28" width="24" height="24" rx="4" fill="#7350FF" fill-opacity="0.1"/>
<rect x="56.5" y="28.5" width="23" height="23" rx="3.5" stroke="#DC50FF" stroke-opacity="0.2"/>
<path d="M64.816 35.6H68.896L70.624 38.18V42.86L69.532 44H64.816V35.6ZM66.268 36.956V42.656H68.932L69.172 42.416V38.456L68.152 36.956H66.268Z" fill="#DC50FF"/>
<rect x="28" y="64" width="24" height="24" rx="4" fill="#7350FF" fill-opacity="0.1"/>
<rect x="28.5" y="64.5" width="23" height="23" rx="3.5" stroke="#DC50FF" stroke-opacity="0.2"/>
<path d="M43.8886 77.7633C44.1266 78.0351 43.958 78.5 43.6214 78.5L36.3786 78.5C36.042 78.5 35.8734 78.0351 36.1114 77.7633L39.7329 73.6264C39.8804 73.4579 40.1196 73.4579 40.2671 73.6264L43.8886 77.7633Z" fill="#DC50FF"/>
<rect y="92" width="24" height="24" rx="4" fill="#7350FF" fill-opacity="0.1"/>
<rect x="0.5" y="92.5" width="23" height="23" rx="3.5" stroke="#DC50FF" stroke-opacity="0.2"/>
<path d="M13.7633 100.111C14.0351 99.8734 14.5 100.042 14.5 100.379L14.5 107.621C14.5 107.958 14.0351 108.127 13.7633 107.889L9.6264 104.267C9.45787 104.12 9.45787 103.88 9.6264 103.733L13.7633 100.111Z" fill="#DC50FF"/>
<rect x="28" y="92" width="24" height="24" rx="4" fill="#7350FF" fill-opacity="0.1"/>
<rect x="28.5" y="92.5" width="23" height="23" rx="3.5" stroke="#DC50FF" stroke-opacity="0.2"/>
<path d="M36.1114 102.388C35.8734 102.139 36.042 101.714 36.3786 101.714L43.6214 101.714C43.958 101.714 44.1266 102.139 43.8886 102.388L40.2671 106.17C40.1196 106.324 39.8804 106.324 39.7329 106.17L36.1114 102.388Z" fill="#DC50FF"/>
<rect x="56" y="92" width="24" height="24" rx="4" fill="#7350FF" fill-opacity="0.1"/>
<rect x="56.5" y="92.5" width="23" height="23" rx="3.5" stroke="#DC50FF" stroke-opacity="0.2"/>
<path d="M66.2367 107.889C65.9649 108.127 65.5 107.958 65.5 107.621L65.5 100.379C65.5 100.042 65.9649 99.8734 66.2367 100.111L70.3736 103.733C70.5421 103.88 70.5421 104.12 70.3736 104.267L66.2367 107.889Z" fill="#DC50FF"/>
</svg>
